<svg xmlns="http://www.w3.org/2000/svg" viewBox="0 0 1200 760">
  <rect width="1200" height="760" fill="#eef5fa"/>
  <defs>
    <linearGradient id="g1" x1="0" x2="1">
      <stop offset="0%" stop-color="#0f6a8b" stop-opacity="0.12"/>
      <stop offset="100%" stop-color="#ef7d57" stop-opacity="0.12"/>
    </linearGradient>
  </defs>
  <rect x="48" y="40" width="1104" height="680" rx="30" fill="white" stroke="#d7e2ea"/>
  <rect x="80" y="72" width="1040" height="120" rx="24" fill="url(#g1)" stroke="#d7e2ea"/>
  <text x="108" y="108" fill="#0f6a8b" font-size="18" font-family="Segoe UI, Arial" font-weight="700">EXPLOT REPORT</text>
  <text x="108" y="150" fill="#193042" font-size="42" font-family="Segoe UI, Arial" font-weight="800">Sleep Health Demo</text>
  <text x="108" y="178" fill="#5f7584" font-size="18" font-family="Segoe UI, Arial">Profiling, exploration, PCA, autoencoder, model selection, and findings in one report.</text>

  <rect x="80" y="224" width="190" height="110" rx="20" fill="#f8fbfd" stroke="#d7e2ea"/>
  <rect x="290" y="224" width="190" height="110" rx="20" fill="#f8fbfd" stroke="#d7e2ea"/>
  <rect x="500" y="224" width="190" height="110" rx="20" fill="#f8fbfd" stroke="#d7e2ea"/>
  <rect x="710" y="224" width="190" height="110" rx="20" fill="#f8fbfd" stroke="#d7e2ea"/>
  <rect x="920" y="224" width="190" height="110" rx="20" fill="#f8fbfd" stroke="#d7e2ea"/>

  <text x="100" y="252" fill="#5f7584" font-size="14" font-family="Segoe UI, Arial" font-weight="700">QUALITY</text>
  <text x="100" y="300" fill="#193042" font-size="38" font-family="Segoe UI, Arial" font-weight="800">87</text>

  <text x="310" y="252" fill="#5f7584" font-size="14" font-family="Segoe UI, Arial" font-weight="700">HOPKINS</text>
  <text x="310" y="300" fill="#193042" font-size="38" font-family="Segoe UI, Arial" font-weight="800">0.69</text>

  <text x="520" y="252" fill="#5f7584" font-size="14" font-family="Segoe UI, Arial" font-weight="700">INTRINSIC DIM</text>
  <text x="520" y="300" fill="#193042" font-size="38" font-family="Segoe UI, Arial" font-weight="800">15</text>

  <text x="730" y="252" fill="#5f7584" font-size="14" font-family="Segoe UI, Arial" font-weight="700">AUTOENCODER</text>
  <text x="730" y="300" fill="#193042" font-size="30" font-family="Segoe UI, Arial" font-weight="800">latent 15</text>

  <text x="940" y="252" fill="#5f7584" font-size="14" font-family="Segoe UI, Arial" font-weight="700">BEST TARGET</text>
  <text x="940" y="300" fill="#193042" font-size="26" font-family="Segoe UI, Arial" font-weight="800">chronotype</text>

  <rect x="80" y="368" width="500" height="300" rx="22" fill="#f8fbfd" stroke="#d7e2ea"/>
  <rect x="620" y="368" width="500" height="300" rx="22" fill="#f8fbfd" stroke="#d7e2ea"/>

  <text x="104" y="402" fill="#193042" font-size="22" font-family="Segoe UI, Arial" font-weight="700">Dimensionality View</text>
  <text x="644" y="402" fill="#193042" font-size="22" font-family="Segoe UI, Arial" font-weight="700">Top Findings</text>

  <line x1="118" y1="628" x2="540" y2="628" stroke="#b6c5cf"/>
  <line x1="118" y1="430" x2="118" y2="628" stroke="#b6c5cf"/>
  <rect x="140" y="540" width="34" height="88" rx="5" fill="#0f6a8b"/>
  <rect x="188" y="492" width="34" height="136" rx="5" fill="#0f6a8b"/>
  <rect x="236" y="570" width="34" height="58" rx="5" fill="#0f6a8b"/>
  <rect x="284" y="590" width="34" height="38" rx="5" fill="#0f6a8b"/>
  <polyline points="157,532 205,468 253,452 301,446 349,442" fill="none" stroke="#ef7d57" stroke-width="4"/>
  <circle cx="157" cy="532" r="4" fill="#ef7d57"/>
  <circle cx="205" cy="468" r="4" fill="#ef7d57"/>
  <circle cx="253" cy="452" r="4" fill="#ef7d57"/>
  <circle cx="301" cy="446" r="4" fill="#ef7d57"/>
  <circle cx="349" cy="442" r="4" fill="#ef7d57"/>
  <text x="120" y="654" fill="#5f7584" font-size="13" font-family="Segoe UI, Arial">scree plot: variance captured by leading components</text>

  <text x="650" y="448" fill="#193042" font-size="18" font-family="Segoe UI, Arial">• Mixed numeric and categorical structure is clean enough for analysis</text>
  <text x="650" y="492" fill="#193042" font-size="18" font-family="Segoe UI, Arial">• Cluster tendency is moderate, but KMeans separation is weak</text>
  <text x="650" y="536" fill="#193042" font-size="18" font-family="Segoe UI, Arial">• Chronotype is moderately predictable from the rest of the table</text>
  <text x="650" y="580" fill="#193042" font-size="18" font-family="Segoe UI, Arial">• Person ID is correctly flagged as an identifier</text>
  <text x="650" y="624" fill="#193042" font-size="18" font-family="Segoe UI, Arial">• Report explains trust notes and model caveats inline</text>
</svg>
